<?xml version="1.0" encoding="UTF-8" standalone="no"?>
<!-- Created with Inkscape (http://www.inkscape.org/) -->

<svg
   width="113.50583mm"
   height="101.92238mm"
   viewBox="0 0 113.50583 101.92238"
   version="1.1"
   id="svg5"
   inkscape:version="1.1.2 (0a00cf5339, 2022-02-04)"
   sodipodi:docname="key-icon.svg"
   xmlns:inkscape="http://www.inkscape.org/namespaces/inkscape"
   xmlns:sodipodi="http://sodipodi.sourceforge.net/DTD/sodipodi-0.dtd"
   xmlns="http://www.w3.org/2000/svg"
   xmlns:svg="http://www.w3.org/2000/svg">
  <sodipodi:namedview
     id="namedview7"
     pagecolor="#ffffff"
     bordercolor="#000000"
     borderopacity="0.25"
     inkscape:pageshadow="2"
     inkscape:pageopacity="0.0"
     inkscape:pagecheckerboard="0"
     inkscape:document-units="mm"
     showgrid="false"
     inkscape:snap-global="false"
     fit-margin-top="0"
     fit-margin-left="0"
     fit-margin-right="0"
     fit-margin-bottom="0"
     inkscape:zoom="0.84670104"
     inkscape:cx="225.58139"
     inkscape:cy="50.78534"
     inkscape:window-width="1920"
     inkscape:window-height="1043"
     inkscape:window-x="0"
     inkscape:window-y="0"
     inkscape:window-maximized="1"
     inkscape:current-layer="layer1" />
  <defs
     id="defs2" />
  <g
     inkscape:label="Ebene 1"
     inkscape:groupmode="layer"
     id="layer1"
     transform="translate(-39.084913,-134.53858)">
    <path
       id="rect972-3"
       style="fill:#585858;fill-opacity:1;stroke-width:0.264583"
       d="m 72.814831,233.90697 c 2.58889,3.04941 7.1284,3.42017 10.17779,0.8313 l 14.43323,-12.25352 c 3.049399,-2.58888 3.420179,-7.12838 0.8313,-10.17778 l -11.71941,-13.8041 c 0.0436,-0.0346 0.0872,-0.0686 0.12992,-0.10488 l 40.267499,-34.18629 7.9816,9.40141 c 1.17185,1.38029 3.22604,1.54807 4.60634,0.37623 1.3803,-1.17184 1.54847,-3.22637 0.37663,-4.60667 l -7.98161,-9.40141 2.77532,-2.35618 7.99699,9.41953 c 1.17185,1.3803 3.22644,1.54774 4.60673,0.3759 l 4.13756,-3.51271 c 1.3803,-1.17185 1.54808,-3.22604 0.37624,-4.60634 l -7.99699,-9.41953 3.34534,-2.84013 c 2.18293,-1.85325 2.4487,-5.10278 0.59545,-7.28569 l -2.87759,-3.38947 c -1.85325,-2.18292 -5.10283,-2.44796 -7.28575,-0.59472 l -60.491649,51.3562 c -0.0427,0.0362 -0.0833,0.0739 -0.12458,0.11117 l -10.72542,-12.6333 c -2.58887,-3.0494 -7.12805,-3.41979 -10.17745,-0.83091 l -14.43322,12.25352 c -3.04941,2.58888 -3.42052,7.12799 -0.83163,10.17739 z m 1.01303,-11.36107 -21.64549,-25.49589 c -0.72911,-0.85881 -0.62471,-2.13709 0.2341,-2.86621 l 9.95412,-8.45083 c 0.85882,-0.72913 2.13709,-0.62471 2.86621,0.2341 l 21.64548,25.49588 c 0.72912,0.85881 0.62472,2.13709 -0.23409,2.86621 l -9.95411,8.45084 c -0.85882,0.72911 -2.13711,0.62471 -2.86622,-0.2341 z" />
  </g>
</svg>
