<?xml version="1.0" encoding="UTF-8" standalone="no"?>
<!-- Created with Inkscape (http://www.inkscape.org/) -->

<svg
   width="140.47478mm"
   height="140.47478mm"
   viewBox="0 0 140.47478 140.47478"
   version="1.1"
   id="svg5"
   xmlns="http://www.w3.org/2000/svg"
   xmlns:svg="http://www.w3.org/2000/svg">
  <defs
     id="defs2" />
  <path
     id="rect869"
     style="fill:#cd4708;fill-opacity:1;stroke:none;stroke-width:20.6"
     d="M 167.80469 10.300781 C 80.546757 10.300781 10.300781 80.546757 10.300781 167.80469 L 10.300781 363.12305 C 10.300781 450.38096 80.546757 520.62891 167.80469 520.62891 L 363.12305 520.62891 C 450.38096 520.62891 520.62891 450.38096 520.62891 363.12305 L 520.62891 167.80469 C 520.62891 80.546757 450.38096 10.300781 363.12305 10.300781 L 167.80469 10.300781 z M 242.27148 50.966797 C 250.12587 50.854525 257.96092 54.136143 263.46484 60.619141 L 309.77734 115.16992 C 319.56209 126.69521 318.16201 143.85006 306.63672 153.63477 L 258.88867 194.17188 C 259.02962 194.32789 259.17354 194.48119 259.31055 194.64258 L 453.41211 423.27344 C 460.41648 431.52384 459.41447 443.80614 451.16406 450.81055 L 438.35352 461.68555 C 430.10315 468.68996 417.82082 467.68599 410.81641 459.43555 L 400.08203 446.79102 L 364.48047 477.01562 C 359.26359 481.44463 351.5013 480.81063 347.07227 475.59375 L 333.79492 459.95703 C 329.36592 454.74019 329.99991 446.97396 335.2168 442.54492 L 370.81641 412.32031 L 361.91211 401.83008 L 326.37891 431.99805 C 321.16202 436.42705 313.39775 435.7911 308.96875 430.57422 C 304.53975 425.35734 305.17378 417.5931 310.39062 413.16406 L 345.92383 382.99805 L 216.71484 230.80469 C 216.57784 230.64323 216.44898 230.47924 216.31836 230.31445 L 164.14648 274.60742 C 152.62117 284.39217 135.4625 282.99209 125.67773 271.4668 L 79.365234 216.91602 C 69.580499 205.39076 70.982491 188.23205 82.507812 178.44727 L 225 57.474609 C 230.04231 53.193768 236.16252 51.054119 242.27148 50.966797 z M 227.41016 98.658203 C 225.45213 98.498282 223.43349 99.088951 221.81055 100.4668 L 125.44727 182.27734 C 122.20137 185.03304 121.8068 189.86344 124.5625 193.10938 L 156.50195 230.73242 C 159.2577 233.97832 164.09004 234.37292 167.33594 231.61719 L 263.69727 149.80664 C 266.94316 147.05091 267.33778 142.22054 264.58203 138.97461 L 232.64258 101.35156 C 231.26472 99.728614 229.36818 98.818124 227.41016 98.658203 z "
     transform="scale(0.26458333)" />
  <g
     id="layer1"
     transform="translate(-25.600441,-115.26238)" />
  <path
     style="fill:#ffffff;stroke:none;stroke-width:13.9861;fill-opacity:1"
     d="m 352.02854,478.69906 c -1.12024,-0.50402 -3.44179,-2.40157 -5.15899,-4.21678 -5.42455,-5.7342 -14.23609,-16.57065 -14.90514,-18.3304 -1.23571,-3.25015 -0.75575,-7.2723 1.22365,-10.25452 1.05052,-1.58275 9.80904,-9.52514 20.02669,-18.16058 l 18.15962,-15.3476 -4.51946,-5.39914 c -2.4857,-2.96952 -4.69986,-5.39699 -4.92036,-5.39435 -0.22049,0.003 -5.28924,4.16736 -11.26388,9.25495 -23.81232,20.27696 -26.71275,22.5696 -29.50356,23.32108 -5.58172,1.50301 -11.76232,-1.98106 -14.02511,-7.90608 -1.01997,-2.67076 -1.06736,-3.53315 -0.34333,-6.24853 0.46198,-1.73257 1.66205,-4.02446 2.66682,-5.09307 1.00478,-1.06861 9.53203,-8.49171 18.94946,-16.49579 9.41742,-8.00407 17.28222,-14.81113 17.47731,-15.1268 0.27357,-0.44265 -123.51564,-147.11452 -128.51763,-152.27433 -1.06646,-1.10011 -2.71678,0.17582 -27.95136,21.61025 -14.7499,12.52866 -28.04008,23.49485 -29.53374,24.3693 -7.9659,4.66357 -16.94445,4.87363 -25.3676,0.59347 -5.79204,-2.94317 -4.0037,-1.00343 -39.410118,-42.74658 -20.554586,-24.23327 -21.447209,-25.71579 -21.447209,-35.62093 0,-6.10831 0.14552,-6.77892 2.504534,-11.54192 1.377493,-2.78125 3.668904,-6.15904 5.092023,-7.50619 3.707059,-3.50921 141.52606,-120.357276 145.552,-123.404391 4.99271,-3.778846 9.40136,-5.181191 16.28382,-5.179712 5.32687,0.0011 6.22794,0.208893 10.86298,2.504534 2.77986,1.376807 6.17394,3.667656 7.54242,5.090775 1.36847,1.423119 13.20513,15.232295 26.30368,30.687057 15.47547,18.259237 24.47119,29.433967 25.68774,31.910017 1.6828,3.42502 1.87217,4.5315 1.87217,10.93927 0,6.26036 -0.21514,7.58752 -1.76598,10.89397 -0.9713,2.07082 -2.76952,4.90807 -3.99603,6.305 -1.22652,1.39693 -13.02232,11.70368 -26.2129,22.90388 -13.19058,11.20021 -24.15895,20.64894 -24.37418,20.99717 -0.21522,0.34824 43.5237,52.35391 97.19761,115.56817 53.6739,63.21426 98.36748,116.30986 99.31906,117.99023 1.45545,2.57014 1.73014,3.91755 1.73014,8.4867 0,7.99603 -1.73636,10.75878 -12.42285,19.76624 -10.57666,8.91488 -12.61033,10.00282 -18.80823,10.06177 -7.33289,0.0697 -11.07244,-2.06967 -18.08306,-10.34535 -3.06711,-3.62058 -6.09982,-7.1508 -6.73934,-7.84494 -1.11898,-1.21454 -1.84967,-0.67796 -19.40126,14.24743 -10.03117,8.53023 -19.29603,16.04877 -20.58859,16.70787 -2.7748,1.41495 -6.35729,1.50414 -9.19182,0.22885 z M 166.08937,232.70546 c 1.15777,-0.65347 23.95739,-19.75755 50.66581,-42.45349 32.47551,-27.59664 48.83594,-41.92967 49.39149,-43.27089 1.36852,-3.30392 0.30402,-6.39806 -3.92146,-11.39835 -32.7852,-38.796881 -32.39807,-38.41581 -37.46461,-36.878075 -3.26891,0.992139 -99.66208,82.747115 -101.43707,86.032915 -2.39656,4.4364 -1.8532,5.32282 16.6069,27.09188 9.33916,11.01321 17.80329,20.47081 18.80917,21.0169 2.45931,1.33515 4.81465,1.29 7.34977,-0.14089 z"
     id="path1044"
     transform="scale(0.26458333)" />
</svg>
