<?xml version="1.0" encoding="UTF-8" standalone="no"?>
<svg
   id="svg8"
   version="1.1"
   viewBox="0 0 19.927341 20.11486"
   height="76.024666"
   width="75.315933"
   sodipodi:docname="key-icon.svg"
   inkscape:version="1.1.2 (0a00cf5339, 2022-02-04)"
   xmlns:inkscape="http://www.inkscape.org/namespaces/inkscape"
   xmlns:sodipodi="http://sodipodi.sourceforge.net/DTD/sodipodi-0.dtd"
   xmlns="http://www.w3.org/2000/svg"
   xmlns:svg="http://www.w3.org/2000/svg"
   xmlns:rdf="http://www.w3.org/1999/02/22-rdf-syntax-ns#"
   xmlns:cc="http://creativecommons.org/ns#"
   xmlns:dc="http://purl.org/dc/elements/1.1/">
  <sodipodi:namedview
     pagecolor="#ffffff"
     bordercolor="#666666"
     borderopacity="1"
     objecttolerance="10"
     gridtolerance="10"
     guidetolerance="10"
     inkscape:pageopacity="0"
     inkscape:pageshadow="2"
     inkscape:window-width="1606"
     inkscape:window-height="991"
     id="namedview10"
     showgrid="false"
     inkscape:zoom="3.0779476"
     inkscape:cx="-68.71462"
     inkscape:cy="9.4218628"
     inkscape:window-x="26"
     inkscape:window-y="23"
     inkscape:window-maximized="0"
     inkscape:current-layer="svg8"
     inkscape:pagecheckerboard="0"
     fit-margin-top="0"
     fit-margin-left="0"
     fit-margin-right="0"
     fit-margin-bottom="0" />
  <defs
     id="defs2">
    <linearGradient
       id="linearGradient873"
       inkscape:swatch="solid">
      <stop
         id="stop871"
         offset="0"
         style="stop-color:#ff0000;stop-opacity:1;" />
    </linearGradient>
  </defs>
  <metadata
     id="metadata5">
    <rdf:RDF>
      <cc:Work
         rdf:about="">
        <dc:format>image/svg+xml</dc:format>
        <dc:type
           rdf:resource="http://purl.org/dc/dcmitype/StillImage" />
      </cc:Work>
    </rdf:RDF>
  </metadata>
  <path
     style="fill:#969696;fill-opacity:1;stroke:none;stroke-width:0.523081;stroke-miterlimit:4;stroke-dasharray:none;stroke-opacity:1"
     d="m 19.927255,1.4714593 -0.0016,1.423824 H 19.172983 18.4203 v 0.807962 0.807963 l -0.808963,0.0027 -0.808962,0.0027 -0.0025,0.864514 -0.0025,0.864514 -3.078012,3.106893 -3.078087,3.1069467 0.192735,0.616101 c 0.492815,1.575155 0.381995,3.101869 -0.32274,4.44678 -0.286707,0.54715 -0.383458,0.666629 -0.999551,1.234353 C 8.973593,19.252591 8.720465,19.435089 8.312587,19.621258 6.552914,20.424429 4.455112,20.238251 2.774937,19.129795 0.25895203,17.469933 -0.71327097,14.21188 0.55611503,11.694224 0.81751005,11.175785 0.95985305,10.987683 1.504659,10.440752 2.062772,9.8804174 2.223357,9.7595825 2.746685,9.5057933 4.082962,8.8577503 5.595022,8.7585303 6.975276,9.2283173 l 0.437493,0.148907 2.711047,-2.710824 c 1.491061,-1.490968 3.611855,-3.578542 4.712871,-4.639058 l 2.001851,-1.92820697 1.507753,-0.06318 c 0.829238,-0.03477 1.524573,-0.04634 1.545164,-0.02576 0.02059,0.02059 0.03674,0.67816 0.03585,1.46126297 z m -6.366653,4.773645 C 9.102104,10.703601 9.065795,10.741756 9.176568,10.852528 c 0.110769,0.11077 0.148927,0.07446 4.607425,-4.3840337 4.458497,-4.458499 4.494807,-4.496653 4.384035,-4.607426 -0.110771,-0.11077 -0.148925,-0.07446 -4.607426,4.384036 z M 3.448711,13.461025 c -0.293787,0.03509 -0.650974,0.346136 -0.683714,0.595395 -0.0465,0.353959 0.07431,0.51142 1.441138,1.878239 1.366819,1.36682 1.52428,1.487637 1.878239,1.441139 0.249258,-0.03274 0.560301,-0.389931 0.595395,-0.683716 l 0.0314,-0.262898 -1.499777,-1.499778 -1.499778,-1.499778 z"
     id="path937"
     inkscape:connector-curvature="0" />
</svg>
