<?xml version="1.0" encoding="UTF-8" standalone="no"?>
<!-- Created with Inkscape (http://www.inkscape.org/) -->

<svg
   width="140.47478mm"
   height="140.47478mm"
   viewBox="0 0 140.47478 140.47478"
   version="1.1"
   id="svg5"
   xmlns="http://www.w3.org/2000/svg"
   xmlns:svg="http://www.w3.org/2000/svg">
  <defs
     id="defs2" />
  <path
     id="rect869"
     style="fill:#cd4708;fill-opacity:1;stroke:none;stroke-width:20.6"
     d="M 25.009766 10.300781 C 16.860696 10.300781 10.300781 16.860696 10.300781 25.009766 L 10.300781 505.91797 C 10.300781 514.06705 16.860696 520.62891 25.009766 520.62891 L 505.91797 520.62891 C 514.06705 520.62891 520.62891 514.06705 520.62891 505.91797 L 520.62891 25.009766 C 520.62891 16.860696 514.06705 10.300781 505.91797 10.300781 L 25.009766 10.300781 z M 242.27148 50.966797 C 250.12587 50.854525 257.96092 54.136143 263.46484 60.619141 L 309.77734 115.16992 C 319.56209 126.69521 318.16201 143.85006 306.63672 153.63477 L 258.88867 194.17188 C 259.02962 194.32789 259.17354 194.48119 259.31055 194.64258 L 453.41211 423.27344 C 460.41648 431.52384 459.41447 443.80614 451.16406 450.81055 L 438.35352 461.68555 C 430.10315 468.68996 417.82082 467.68599 410.81641 459.43555 L 400.08203 446.79102 L 364.48047 477.01562 C 359.26359 481.44463 351.5013 480.81063 347.07227 475.59375 L 333.79492 459.95703 C 329.36592 454.74019 329.99991 446.97396 335.2168 442.54492 L 370.81641 412.32031 L 361.91211 401.83008 L 326.37891 431.99805 C 321.16202 436.42705 313.39775 435.7911 308.96875 430.57422 C 304.53975 425.35734 305.17378 417.5931 310.39062 413.16406 L 345.92383 382.99805 L 216.71484 230.80469 C 216.57784 230.64323 216.44898 230.47924 216.31836 230.31445 L 164.14648 274.60742 C 152.62117 284.39217 135.4625 282.99209 125.67773 271.4668 L 79.365234 216.91602 C 69.580499 205.39076 70.982491 188.23205 82.507812 178.44727 L 225 57.474609 C 230.04231 53.193768 236.16252 51.054119 242.27148 50.966797 z M 227.41016 98.658203 C 225.45213 98.498282 223.43349 99.088951 221.81055 100.4668 L 125.44727 182.27734 C 122.20137 185.03304 121.8068 189.86344 124.5625 193.10938 L 156.50195 230.73242 C 159.2577 233.97832 164.09004 234.37292 167.33594 231.61719 L 263.69727 149.80664 C 266.94316 147.05091 267.33778 142.22054 264.58203 138.97461 L 232.64258 101.35156 C 231.26472 99.728614 229.36818 98.818124 227.41016 98.658203 z "
     transform="scale(0.26458333)" />
  <g
     id="layer1"
     transform="translate(-25.600441,-115.26238)" />
</svg>
