<?xml version="1.0" encoding="UTF-8" standalone="no"?>
<svg
   xmlns:dc="http://purl.org/dc/elements/1.1/"
   xmlns:cc="http://creativecommons.org/ns#"
   xmlns:rdf="http://www.w3.org/1999/02/22-rdf-syntax-ns#"
   xmlns:svg="http://www.w3.org/2000/svg"
   xmlns="http://www.w3.org/2000/svg"
   id="svg1400"
   version="1.1"
   viewBox="0 0 23.859747 23.859747"
   height="23.859747mm"
   width="23.859747mm">
  <defs
     id="defs1394" />
  <metadata
     id="metadata1397">
    <rdf:RDF>
      <cc:Work
         rdf:about="">
        <dc:format>image/svg+xml</dc:format>
        <dc:type
           rdf:resource="http://purl.org/dc/dcmitype/StillImage" />
        <dc:title></dc:title>
      </cc:Work>
    </rdf:RDF>
  </metadata>
  <g
     transform="translate(-106.75465,-144.46298)"
     id="layer1">
    <rect
       style="fill:#666666;fill-opacity:1;stroke:none;stroke-width:17.69223785;stroke-miterlimit:4;stroke-dasharray:none;stroke-opacity:1"
       id="rect28"
       width="23.859747"
       height="23.859747"
       x="106.75465"
       y="144.46298"
       ry="3.9087646" />
    <g
       style="fill:#ffffff;fill-opacity:1"
       transform="matrix(0.03649932,0,0,-0.03649932,3.2479703,170.1026)"
       id="g6">
      <path
         d="M 2938.0555,633.9116 V 484.97095 h 44.8207 c 17.6217,0 26.4293,9.32884 26.4293,27.72849 v 50.95035 h 223.6567 c 65.32,0 97.9767,-34.70539 97.9767,-101.93432 V 406.296 h -321.6334 l 0.01,-33.63645 c 0,-18.30913 -8.8917,-27.72332 -26.4293,-27.72332 h -60.6639 v -91.04444 c 0,-91.04444 45.5233,-136.56988 137.5572,-136.56988 h 182.0953 c 106.8749,0 161.3114,55.41883 161.3114,165.26902 V 468.6374 c 0,109.84956 -54.4365,165.26903 -161.3114,165.26903 z m 187.3981,-288.97667 h 48.3449 c 32.5663,0 44.9564,-16.72026 44.9564,-47.91683 v -72.93772 c 0,-24.77063 -12.4225,-37.6154 -36.7049,-37.6154 h -24.942 c -21.0361,0 -31.6544,12.44836 -31.6544,37.16079 v 121.30852"
         id="path4"
         style="fill:#ffffff;fill-opacity:1;stroke-width:0.64666831" />
    </g>
  </g>
</svg>
