<?xml version="1.0" encoding="UTF-8" standalone="no"?>
<svg
   xmlns:dc="http://purl.org/dc/elements/1.1/"
   xmlns:cc="http://creativecommons.org/ns#"
   xmlns:rdf="http://www.w3.org/1999/02/22-rdf-syntax-ns#"
   xmlns:svg="http://www.w3.org/2000/svg"
   xmlns="http://www.w3.org/2000/svg"
   xmlns:xlink="http://www.w3.org/1999/xlink"
   xmlns:sodipodi="http://sodipodi.sourceforge.net/DTD/sodipodi-0.dtd"
   xmlns:inkscape="http://www.inkscape.org/namespaces/inkscape"
   width="87.514915"
   height="74.832336"
   version="1.1"
   viewBox="0 0 192.85953 398.53102"
   xml:space="preserve"
   id="svg10"
   sodipodi:docname="heart.svg"
   inkscape:version="0.92.3 (2405546, 2018-03-11)"><defs
     id="defs14"><linearGradient
       y2="13.229791"
       x2="-258.68027"
       y1="3.2192702"
       x1="-293.63593"
       gradientUnits="userSpaceOnUse"
       id="linearGradient6210"
       xlink:href="#linearGradient6206" /><linearGradient
       id="linearGradient6206"><stop
         id="stop6202"
         offset="0"
         style="stop-color:#ffec00;stop-opacity:1" /><stop
         id="stop6204"
         offset="1"
         style="stop-color:#ff0000;stop-opacity:1" /></linearGradient></defs><sodipodi:namedview
     pagecolor="#ffffff"
     bordercolor="#666666"
     borderopacity="1"
     objecttolerance="10"
     gridtolerance="10"
     guidetolerance="10"
     inkscape:pageopacity="0"
     inkscape:pageshadow="2"
     inkscape:window-width="1853"
     inkscape:window-height="1052"
     id="namedview12"
     showgrid="true"
     inkscape:zoom="5.9261994"
     inkscape:cx="24.973612"
     inkscape:cy="51.225424"
     inkscape:window-x="1987"
     inkscape:window-y="0"
     inkscape:window-maximized="1"
     inkscape:current-layer="g8"
     inkscape:snap-global="false"
     inkscape:pagecheckerboard="true"
     fit-margin-top="0"
     fit-margin-left="0"
     fit-margin-right="0"
     fit-margin-bottom="0"><inkscape:grid
       type="xygrid"
       id="grid814"
       originx="-7.7961125"
       originy="-21.2647" /></sodipodi:namedview><metadata
     id="metadata2"><rdf:RDF><cc:Work
         rdf:about=""><dc:format>image/svg+xml</dc:format><dc:type
           rdf:resource="http://purl.org/dc/dcmitype/StillImage" /><dc:title></dc:title></cc:Work></rdf:RDF></metadata><g
     transform="matrix(6.4131855,0,0,-6.4131855,-1935.3288,416.0147)"
     id="g8"><g
       transform="matrix(2.0600602,0,0,-1.954417,280.47242,579.78551)"
       id="layer1"><g
         transform="rotate(-45,12.388336,277.04149)"
         id="g61"><g
           id="g112"><g
             id="g120"><g
               id="g125"><path
                 inkscape:connector-curvature="0"
                 d="m -262.5319,13.229773 a 11.083057,10.010504 0 0 1 -11.08306,10.010503 11.083057,10.010504 0 0 1 -11.08306,-10.010503 11.083057,10.010504 0 0 1 11.08306,-10.0105042 11.083057,10.010504 0 0 1 11.08306,10.0105042 z m -21.09353,21.093558 a 10.010503,11.083056 0 0 1 -10.0105,-11.083057 10.010503,11.083056 0 0 1 10.0105,-11.083056 10.010503,11.083056 0 0 1 10.01051,11.083056 10.010503,11.083056 0 0 1 -10.01051,11.083057 z M -273.61496,3.2192702 V 23.240276 h -20.02098 V 3.2192702 Z"
                 style="fill:url(#linearGradient6210);fill-opacity:1;stroke-width:0.42132547"
                 transform="rotate(-90)"
                 id="path26-6" /></g></g></g></g></g></g></svg>