<?xml version="1.0" encoding="UTF-8" standalone="no"?>
<svg
   xmlns:dc="http://purl.org/dc/elements/1.1/"
   xmlns:cc="http://creativecommons.org/ns#"
   xmlns:rdf="http://www.w3.org/1999/02/22-rdf-syntax-ns#"
   xmlns:svg="http://www.w3.org/2000/svg"
   xmlns="http://www.w3.org/2000/svg"
   id="svg831"
   version="1.1"
   viewBox="0 0 21.166666 21.166666"
   height="21.166666mm"
   width="21.166666mm">
  <defs
     id="defs825" />
  <metadata
     id="metadata828">
    <rdf:RDF>
      <cc:Work
         rdf:about="">
        <dc:format>image/svg+xml</dc:format>
        <dc:type
           rdf:resource="http://purl.org/dc/dcmitype/StillImage" />
        <dc:title></dc:title>
      </cc:Work>
    </rdf:RDF>
  </metadata>
  <g
     transform="translate(-46.869047,-143.54166)"
     id="layer1">
    <path
       id="path839"
       transform="matrix(0.26458333,0,0,0.26458333,46.869047,143.54166)"
       d="M 39.742188 7.5839844 C 31.412291 7.6486757 23.107534 10.864797 16.853516 17.21875 C 4.3454753 29.926542 4.514849 50.638478 17.222656 63.146484 C 29.930429 75.654528 50.63651 75.490806 63.144531 62.783203 L 63.144531 62.78125 C 75.65256 50.073496 75.489038 29.367381 62.78125 16.859375 C 56.427373 10.605334 48.072084 7.519293 39.742188 7.5839844 z M 39.851562 24.802734 A 15.099009 15.099009 0 0 1 54.951172 39.900391 A 15.099009 15.099009 0 0 1 39.851562 55 A 15.099009 15.099009 0 0 1 24.751953 39.900391 A 15.099009 15.099009 0 0 1 39.851562 24.802734 z "
       style="color:#000000;font-style:normal;font-variant:normal;font-weight:normal;font-stretch:normal;font-size:medium;line-height:normal;font-family:sans-serif;font-variant-ligatures:normal;font-variant-position:normal;font-variant-caps:normal;font-variant-numeric:normal;font-variant-alternates:normal;font-feature-settings:normal;text-indent:0;text-align:start;text-decoration:none;text-decoration-line:none;text-decoration-style:solid;text-decoration-color:#000000;letter-spacing:normal;word-spacing:normal;text-transform:none;writing-mode:lr-tb;direction:ltr;text-orientation:mixed;dominant-baseline:auto;baseline-shift:baseline;text-anchor:start;white-space:normal;shape-padding:0;clip-rule:nonzero;display:inline;overflow:visible;visibility:visible;opacity:1;isolation:auto;mix-blend-mode:normal;color-interpolation:sRGB;color-interpolation-filters:linearRGB;solid-color:#000000;solid-opacity:1;vector-effect:none;fill:#666666;fill-opacity:1;fill-rule:nonzero;stroke:none;stroke-width:17.62771606;stroke-linecap:butt;stroke-linejoin:miter;stroke-miterlimit:4;stroke-dasharray:none;stroke-dashoffset:0;stroke-opacity:1;color-rendering:auto;image-rendering:auto;shape-rendering:auto;text-rendering:auto;enable-background:accumulate" />
    <path
       id="rect843"
       style="fill:#666666;fill-opacity:1;stroke:none;stroke-width:4.66400003;stroke-miterlimit:4;stroke-dasharray:none;stroke-opacity:1"
       d="m 65.922974,160.60621 -1.856008,1.88565 -2.813652,-0.91319 3.712018,-3.77129 z" />
    <path
       id="rect843-5"
       style="fill:#666666;fill-opacity:1;stroke:none;stroke-width:4.66400003;stroke-miterlimit:4;stroke-dasharray:none;stroke-opacity:1"
       d="m 50.97117,162.59559 -1.885647,-1.85601 0.913184,-2.81365 3.771295,3.71202 z" />
    <path
       id="rect843-4"
       style="fill:#666666;fill-opacity:1;stroke:none;stroke-width:4.66400003;stroke-miterlimit:4;stroke-dasharray:none;stroke-opacity:1"
       d="m 50.837797,145.75814 -1.856009,1.88564 0.957643,2.79884 3.712018,-3.7713 z" />
    <path
       id="rect843-9"
       style="fill:#666666;fill-opacity:1;stroke:none;stroke-width:4.66400003;stroke-miterlimit:4;stroke-dasharray:none;stroke-opacity:1"
       d="m 63.933594,145.6544 1.885646,1.85601 -0.913184,2.81365 -3.771295,-3.71201 z" />
    <path
       id="rect843-45"
       style="fill:#666666;fill-opacity:1;stroke:none;stroke-width:4.66400003;stroke-miterlimit:4;stroke-dasharray:none;stroke-opacity:1"
       d="m 46.869047,155.44791 v -2.64583 l 2.645833,-1.32292 v 5.29167 z" />
    <path
       id="rect843-6"
       style="fill:#666666;fill-opacity:1;stroke:none;stroke-width:4.66400003;stroke-miterlimit:4;stroke-dasharray:none;stroke-opacity:1"
       d="m 56.129464,143.54166 h 2.645833 l 1.322917,2.64584 h -5.291667 z" />
    <path
       id="rect843-3"
       style="fill:#666666;fill-opacity:1;stroke:none;stroke-width:4.66400003;stroke-miterlimit:4;stroke-dasharray:none;stroke-opacity:1"
       d="m 56.129464,164.70833 h 2.645833 l 1.322917,-2.64583 h -5.291667 z" />
    <path
       id="rect843-64"
       style="fill:#666666;fill-opacity:1;stroke:none;stroke-width:4.66400003;stroke-miterlimit:4;stroke-dasharray:none;stroke-opacity:1"
       d="m 68.035714,152.80208 v 2.64583 l -2.645834,1.32292 v -5.29167 z" />
  </g>
</svg>
