<?xml version="1.0" encoding="UTF-8" standalone="no"?>
<svg
   xmlns:osb="http://www.openswatchbook.org/uri/2009/osb"
   xmlns:dc="http://purl.org/dc/elements/1.1/"
   xmlns:cc="http://creativecommons.org/ns#"
   xmlns:rdf="http://www.w3.org/1999/02/22-rdf-syntax-ns#"
   xmlns:svg="http://www.w3.org/2000/svg"
   xmlns="http://www.w3.org/2000/svg"
   xmlns:sodipodi="http://sodipodi.sourceforge.net/DTD/sodipodi-0.dtd"
   xmlns:inkscape="http://www.inkscape.org/namespaces/inkscape"
   width="78.637093"
   height="79.458313"
   viewBox="0 0 20.806064 21.023346"
   version="1.1"
   id="svg8"
   inkscape:version="0.92.5 (2060ec1f9f, 2020-04-08)"
   sodipodi:docname="key-icon.svg">
  <defs
     id="defs2">
    <linearGradient
       id="linearGradient873"
       osb:paint="solid">
      <stop
         style="stop-color:#ff0000;stop-opacity:1;"
         offset="0"
         id="stop871" />
    </linearGradient>
  </defs>
  <sodipodi:namedview
     id="base"
     pagecolor="#ffffff"
     bordercolor="#666666"
     borderopacity="1.0"
     inkscape:pageopacity="0.0"
     inkscape:pageshadow="2"
     inkscape:zoom="2.6964653"
     inkscape:cx="-43.583152"
     inkscape:cy="43.128666"
     inkscape:document-units="mm"
     inkscape:current-layer="g951"
     inkscape:document-rotation="0"
     showgrid="true"
     inkscape:snap-global="false"
     inkscape:snap-center="false"
     inkscape:window-width="1920"
     inkscape:window-height="1043"
     inkscape:window-x="0"
     inkscape:window-y="0"
     inkscape:window-maximized="1"
     units="px"
     inkscape:snap-bbox="true"
     inkscape:snap-bbox-midpoints="false"
     inkscape:bbox-nodes="false"
     fit-margin-top="0"
     fit-margin-left="0"
     fit-margin-right="0"
     fit-margin-bottom="0">
    <inkscape:grid
       type="xygrid"
       id="grid911"
       empspacing="14"
       originx="-2.784063"
       originy="-2.5928977" />
  </sodipodi:namedview>
  <metadata
     id="metadata5">
    <rdf:RDF>
      <cc:Work
         rdf:about="">
        <dc:format>image/svg+xml</dc:format>
        <dc:type
           rdf:resource="http://purl.org/dc/dcmitype/StillImage" />
        <dc:title></dc:title>
      </cc:Work>
    </rdf:RDF>
  </metadata>
  <g
     inkscape:label="Layer 1"
     inkscape:groupmode="layer"
     id="layer1"
     transform="translate(-2.784063,-2.8420905)">
    <g
       id="g951"
       transform="matrix(0.94051295,0,0,0.94051295,12.688618,13.321448)">
      <g
         id="g965"
         transform="rotate(45,1.0438016,1.7941202)">
        <path
           style="fill:#000000;fill-opacity:1;stroke:none;stroke-width:0.106914;stroke-miterlimit:4;stroke-dasharray:none;stroke-opacity:1"
           d="m -1.6017091,14.922179 -1.078425,-1.080823 0.570728,-0.570729 0.570728,-0.570728 -0.612643,-0.612643 -0.612643,-0.612642 0.611347,-0.615455 0.611347,-0.615455 -0.653596,-0.6574514 -0.653596,-0.657452 -0.0219,-4.6897466 -0.0219,-4.68974651 -0.613305,-0.3210203 C -5.0736223,-1.592472 -6.1472343,-2.8341429 -6.6326524,-4.388301 c -0.1974825,-0.6322779 -0.214716,-0.7962354 -0.1780406,-1.6938723 0.032034,-0.7840443 0.085589,-1.114361 0.2537011,-1.5648009 0.7252747,-1.9432946 2.4571188,-3.3927958 4.5716168,-3.8263058 3.166365,-0.649161 6.374001,1.084085 7.32051,3.9556365 0.194906,0.5913135 0.229603,0.8418768 0.231215,1.6696931 0.0017,0.8480706 -0.02844,1.0614586 -0.23282,1.6507128 -0.521858,1.5046244 -1.593154,2.7263884 -2.99596,3.41675579 l -0.444642,0.2188228 -1.69e-4,4.11117081 c -7.1e-5,2.2611433 -0.02526,5.4521678 -0.05597,7.0911642 l -0.05584,2.979994 -1.09536002,1.191168 c -0.602409,0.655142 -1.120871,1.191165 -1.152099,1.191165 -0.03123,0 -0.54206898,-0.48637 -1.13520298,-1.080824 z m 1.20790898,-8.4472075 c 0,-6.76137371 -0.0014,-6.81783621 -0.169387,-6.81783621 -0.16798404,0 -0.16938704,0.056463 -0.16938704,6.81783621 0,6.7613745 0.0014,6.8178375 0.16938704,6.8178375 0.167985,0 0.169387,-0.05646 0.169387,-6.8178375 z M 1.8020879,-6.6639614 c 0.196158,-0.2493745 0.231146,-0.7560655 0.06697,-0.9698943 -0.233135,-0.3036497 -0.44414,-0.3314352 -2.51694106,-0.3314352 -2.07280094,0 -2.28380694,0.027786 -2.51694194,0.3314352 -0.164173,0.2138288 -0.129184,0.7205198 0.06697,0.9698943 l 0.175534,0.2231556 h 2.27443394 2.27443306 z"
           id="path937"
           inkscape:connector-curvature="0" />
        <path
           style="color:#000000;font-style:normal;font-variant:normal;font-weight:normal;font-stretch:normal;font-size:medium;line-height:normal;font-family:sans-serif;font-variant-ligatures:normal;font-variant-position:normal;font-variant-caps:normal;font-variant-numeric:normal;font-variant-alternates:normal;font-feature-settings:normal;text-indent:0;text-align:start;text-decoration:none;text-decoration-line:none;text-decoration-style:solid;text-decoration-color:#000000;letter-spacing:normal;word-spacing:normal;text-transform:none;writing-mode:lr-tb;direction:ltr;text-orientation:mixed;dominant-baseline:auto;baseline-shift:baseline;text-anchor:start;white-space:normal;shape-padding:0;clip-rule:nonzero;display:inline;overflow:visible;visibility:visible;isolation:auto;mix-blend-mode:normal;color-interpolation:sRGB;color-interpolation-filters:linearRGB;solid-color:#000000;solid-opacity:1;vector-effect:none;fill:#000000;fill-opacity:0;fill-rule:nonzero;stroke:#000000;stroke-width:0.21265;stroke-linecap:butt;stroke-linejoin:miter;stroke-miterlimit:4;stroke-dasharray:none;stroke-dashoffset:0;stroke-opacity:1;color-rendering:auto;image-rendering:auto;shape-rendering:auto;text-rendering:auto;enable-background:accumulate"
           d="M 1.9004708,-0.50733652 1.865366,13.59946 -0.49183397,16.160137 -2.8750383,13.776936 -3.0336583,13.935555 -0.48533353,16.48388 2.089645,13.687224 2.125399,-0.50668747 Z"
           id="path932"
           inkscape:connector-curvature="0" />
        <path
           style="color:#000000;font-style:normal;font-variant:normal;font-weight:normal;font-stretch:normal;font-size:medium;line-height:normal;font-family:sans-serif;font-variant-ligatures:normal;font-variant-position:normal;font-variant-caps:normal;font-variant-numeric:normal;font-variant-alternates:normal;font-feature-settings:normal;text-indent:0;text-align:start;text-decoration:none;text-decoration-line:none;text-decoration-style:solid;text-decoration-color:#000000;letter-spacing:normal;word-spacing:normal;text-transform:none;writing-mode:lr-tb;direction:ltr;text-orientation:mixed;dominant-baseline:auto;baseline-shift:baseline;text-anchor:start;white-space:normal;shape-padding:0;clip-rule:nonzero;display:inline;overflow:visible;visibility:visible;isolation:auto;mix-blend-mode:normal;color-interpolation:sRGB;color-interpolation-filters:linearRGB;solid-color:#000000;solid-opacity:1;vector-effect:none;fill:#666666;fill-opacity:1;fill-rule:nonzero;stroke:#000000;stroke-width:0.21265;stroke-linecap:butt;stroke-linejoin:miter;stroke-miterlimit:4;stroke-dasharray:none;stroke-dashoffset:0;stroke-opacity:1;color-rendering:auto;image-rendering:auto;shape-rendering:auto;text-rendering:auto;enable-background:accumulate"
           d="m -2.9517478,-0.47938105 -0.221028,6.6567e-4 c 0.013523,2.77284358 0.138117,5.02876628 0.060458,9.48470748 l -0.0013,0.046808 1.1883516,1.1877009 -1.233207,1.233205 1.2332068,1.232559 -1.1551966,1.154546 0.1566694,0.15667 1.311217,-1.311216 -1.2325566,-1.23256 1.2325568,-1.233204 -1.278713,-1.2787133 c 0.075356,-4.4172383 -0.047032,-6.6882154 -0.06046,-9.44116835 z"
           id="path936"
           inkscape:connector-curvature="0" />
        <path
           id="path838"
           style="fill:none;fill-opacity:1;fill-rule:evenodd;stroke:#000000;stroke-width:0.395529;stroke-miterlimit:4;stroke-dasharray:none;stroke-opacity:0.96385504"
           d="m -3.1250129,-0.4147012 c -2.2281553,-0.9209096 -3.8979563,-3.0199645 -3.8979556,-5.4257502 1e-6,-3.2621004 2.8552794,-5.9065576 6.37744341,-5.9065576 3.52216369,0 6.37744249,2.6444572 6.37744249,5.9065576 0,2.4191905 -1.5703398,4.4986931 -3.8184491,5.4118345"
           sodipodi:nodetypes="csssc"
           inkscape:connector-curvature="0" />
        <path
           style="color:#000000;font-style:normal;font-variant:normal;font-weight:normal;font-stretch:normal;font-size:medium;line-height:normal;font-family:sans-serif;font-variant-ligatures:normal;font-variant-position:normal;font-variant-caps:normal;font-variant-numeric:normal;font-variant-alternates:normal;font-feature-settings:normal;text-indent:0;text-align:start;text-decoration:none;text-decoration-line:none;text-decoration-style:solid;text-decoration-color:#000000;letter-spacing:normal;word-spacing:normal;text-transform:none;writing-mode:lr-tb;direction:ltr;text-orientation:mixed;dominant-baseline:auto;baseline-shift:baseline;text-anchor:start;white-space:normal;shape-padding:0;clip-rule:nonzero;display:inline;overflow:visible;visibility:visible;isolation:auto;mix-blend-mode:normal;color-interpolation:sRGB;color-interpolation-filters:linearRGB;solid-color:#000000;solid-opacity:1;vector-effect:none;fill:none;fill-opacity:1;fill-rule:nonzero;stroke:#ffffff;stroke-width:0.21265;stroke-linecap:butt;stroke-linejoin:miter;stroke-miterlimit:4;stroke-dasharray:none;stroke-dashoffset:0;stroke-opacity:1;color-rendering:auto;image-rendering:auto;shape-rendering:auto;text-rendering:auto;enable-background:accumulate"
           d="m -0.66995694,-0.30061143 2e-8,13.56203043 h 0.22167833 l 2e-8,-13.56203043 z"
           id="path928"
           inkscape:connector-curvature="0" />
        <path
           id="rect844"
           style="fill:none;fill-opacity:1;fill-rule:evenodd;stroke:#000000;stroke-width:0.43699601;stroke-miterlimit:4;stroke-dasharray:none;stroke-opacity:1"
           d="m -2.5423659,-7.7922699 h 3.7597433 c 0.3471495,0 0.6266237,0.2794746 0.6266237,0.6266228 0,0.3471482 -0.2794742,0.6266227 -0.6266237,0.6266227 h -3.7597433 c -0.3471495,0 -0.6266241,-0.2794745 -0.6266241,-0.6266227 0,-0.3471482 0.2794746,-0.6266228 0.6266241,-0.6266228 z"
           inkscape:connector-curvature="0" />
      </g>
    </g>
  </g>
</svg>
