<?xml version="1.0" encoding="UTF-8" standalone="no"?>
<!-- Created with Inkscape (http://www.inkscape.org/) -->

<svg
   xmlns:dc="http://purl.org/dc/elements/1.1/"
   xmlns:cc="http://creativecommons.org/ns#"
   xmlns:rdf="http://www.w3.org/1999/02/22-rdf-syntax-ns#"
   xmlns:svg="http://www.w3.org/2000/svg"
   xmlns="http://www.w3.org/2000/svg"
   xmlns:xlink="http://www.w3.org/1999/xlink"
   xmlns:sodipodi="http://sodipodi.sourceforge.net/DTD/sodipodi-0.dtd"
   xmlns:inkscape="http://www.inkscape.org/namespaces/inkscape"
   width="90.115059"
   height="90.112923"
   viewBox="0 0 23.842942 23.842378"
   version="1.1"
   id="svg8"
   sodipodi:docname="story-plugin.svg"
   inkscape:version="0.92.3 (2405546, 2018-03-11)"
   inkscape:export-filename="/home/kim/plug-in.png"
   inkscape:export-xdpi="96"
   inkscape:export-ydpi="96">
  <defs
     id="defs2">
    <linearGradient
       inkscape:collect="always"
       id="linearGradient2460">
      <stop
         style="stop-color:#666666;stop-opacity:1;"
         offset="0"
         id="stop2456" />
      <stop
         style="stop-color:#666666;stop-opacity:0.502"
         offset="1"
         id="stop2458" />
    </linearGradient>
    <inkscape:perspective
       sodipodi:type="inkscape:persp3d"
       inkscape:vp_x="0 : 13.229167 : 1"
       inkscape:vp_y="0 : 1000 : 0"
       inkscape:vp_z="26.458333 : 13.229167 : 1"
       inkscape:persp3d-origin="13.229166 : 8.8194447 : 1"
       id="perspective12" />
    <linearGradient
       inkscape:collect="always"
       xlink:href="#linearGradient2460"
       id="linearGradient2462-7"
       x1="16.07939"
       y1="50.177593"
       x2="83.742043"
       y2="83.034737"
       gradientUnits="userSpaceOnUse"
       gradientTransform="matrix(0.11556342,0,0,0.11556331,0.72497486,284.49515)" />
    <clipPath
       clipPathUnits="userSpaceOnUse"
       id="clipPath957">
      <rect
         style="fill:#dce9ea;fill-opacity:1;stroke:none;stroke-width:19.61912155;stroke-miterlimit:4;stroke-dasharray:none;stroke-opacity:1"
         id="rect959"
         width="26.45834"
         height="26.458347"
         x="8.333335e-07"
         y="270.54166"
         ry="4.3344746" />
    </clipPath>
    <clipPath
       clipPathUnits="userSpaceOnUse"
       id="clipPath3235">
      <rect
         style="fill:#dce9ea;fill-opacity:1;stroke:none;stroke-width:7.84764338;stroke-miterlimit:4;stroke-dasharray:none;stroke-opacity:1"
         id="rect3237"
         width="10.583333"
         height="10.583323"
         x="14.552084"
         y="-295.67706"
         ry="1.7337872" />
    </clipPath>
  </defs>
  <sodipodi:namedview
     id="base"
     pagecolor="#ffffff"
     bordercolor="#666666"
     borderopacity="1.0"
     inkscape:pageopacity="0.0"
     inkscape:pageshadow="2"
     inkscape:zoom="5.6"
     inkscape:cx="9.5354997"
     inkscape:cy="35.92842"
     inkscape:document-units="mm"
     inkscape:current-layer="layer1"
     showgrid="true"
     units="px"
     inkscape:snap-global="true"
     inkscape:window-width="1853"
     inkscape:window-height="1052"
     inkscape:window-x="1987"
     inkscape:window-y="0"
     inkscape:window-maximized="1"
     inkscape:snap-bbox="true"
     inkscape:bbox-paths="false"
     inkscape:bbox-nodes="true"
     inkscape:snap-bbox-edge-midpoints="false"
     inkscape:snap-nodes="false"
     fit-margin-top="0"
     fit-margin-left="0"
     fit-margin-right="0"
     fit-margin-bottom="0">
    <inkscape:grid
       type="xygrid"
       id="grid843"
       originx="-1.2924751"
       originy="-1.2930437" />
  </sodipodi:namedview>
  <metadata
     id="metadata5">
    <rdf:RDF>
      <cc:Work
         rdf:about="">
        <dc:format>image/svg+xml</dc:format>
        <dc:type
           rdf:resource="http://purl.org/dc/dcmitype/StillImage" />
        <dc:title></dc:title>
      </cc:Work>
    </rdf:RDF>
  </metadata>
  <g
     inkscape:label="Ebene 1"
     inkscape:groupmode="layer"
     id="layer1"
     transform="translate(-1.2924751,-271.86456)">
    <g
       transform="matrix(0.39999991,0,0,0.39999991,14.552083,163.64793)"
       id="g850"
       clip-path="url(#clipPath957)">
      <path
         inkscape:connector-curvature="0"
         id="rect819"
         d="M 1.2715658e-6,270.54166 H 26.458333 v 26.45833 H 1.2715658e-6 Z"
         style="opacity:0.95999995;fill:#f47216;fill-opacity:1;stroke:none;stroke-width:1.46499991;stroke-miterlimit:4;stroke-dasharray:none;stroke-opacity:1" />
      <g
         transform="matrix(0.95357143,0,0,1,1.2284226,0)"
         id="g917">
        <rect
           style="opacity:1;fill:#f8a368;fill-opacity:1;stroke:none;stroke-width:0.44336009;stroke-miterlimit:4;stroke-dasharray:none;stroke-dashoffset:0;stroke-opacity:1"
           id="rect863"
           width="26.458334"
           height="2.6458333"
           x="-6.357829e-07"
           y="279.80206" />
        <path
           style="fill:none;stroke:#fce6d6;stroke-width:0.16500001;stroke-linecap:butt;stroke-linejoin:miter;stroke-miterlimit:4;stroke-dasharray:none;stroke-opacity:1"
           d="M 0,282.40065 H 26.458333"
           id="path897"
           inkscape:connector-curvature="0" />
        <path
           style="fill:none;stroke:#fce6d6;stroke-width:0.16500001;stroke-linecap:butt;stroke-linejoin:miter;stroke-miterlimit:4;stroke-dasharray:none;stroke-opacity:1"
           d="M 3.3333333e-7,279.88457 H 26.458333"
           id="path897-7"
           inkscape:connector-curvature="0" />
      </g>
      <path
         inkscape:connector-curvature="0"
         id="path1301"
         transform="matrix(0.26458333,0,0,0.26458333,0,270.54165)"
         d="M 100,57.419922 C 86.946765,61.046785 87.591949,68.148641 86.785156,71.607422 83.723157,88.480367 24.822266,82.5 24.822266,82.5 c 0,0 -27.5298596,13.314085 23.21289,13.035156 32.500003,-0.178545 44.531538,-8.07638 44.107422,-20.71289 C 91.912924,67.979769 92.869907,63.437677 100,60.763672 Z"
         style="fill:#f8a062;fill-opacity:1;stroke:none;stroke-width:0.99999994px;stroke-linecap:butt;stroke-linejoin:miter;stroke-opacity:1" />
      <g
         id="g1340">
        <rect
           style="opacity:1;fill:#fac199;fill-opacity:1;stroke:none;stroke-width:2.00996351;stroke-miterlimit:4;stroke-dasharray:none;stroke-opacity:1"
           id="rect821"
           width="10.583333"
           height="26.45834"
           x="1.3229166"
           y="270.54166" />
        <path
           style="fill:#ffffff;stroke:#ffffff;stroke-width:0.565;stroke-linecap:butt;stroke-linejoin:miter;stroke-miterlimit:4;stroke-dasharray:2.26, 4.52;stroke-dashoffset:0;stroke-opacity:1"
           d="m 6.6145833,270.54165 v 26.45833"
           id="path823"
           inkscape:connector-curvature="0" />
        <path
           style="fill:none;stroke:#ffffff;stroke-width:0.465;stroke-linecap:butt;stroke-linejoin:miter;stroke-miterlimit:4;stroke-dasharray:none;stroke-opacity:1"
           d="m 1.3229166,270.54165 v 26.45833"
           id="path825"
           inkscape:connector-curvature="0" />
        <path
           style="fill:none;stroke:#ffffff;stroke-width:0.465;stroke-linecap:butt;stroke-linejoin:miter;stroke-miterlimit:4;stroke-dasharray:none;stroke-opacity:1"
           d="m 11.90625,270.54165 v 26.45833"
           id="path825-3"
           inkscape:connector-curvature="0" />
      </g>
      <path
         id="path3837"
         style="fill:#ffffff;fill-opacity:1;fill-rule:evenodd;stroke:none;stroke-width:0.07675535"
         d="m 16.823632,279.31425 -1.378719,-0.22509 0.868871,-1.12869 c 0.450458,0.3927 0.506491,0.86417 0.509848,1.35378 m 0.379265,0.0826 c 0.0023,-0.0491 0.01019,-0.12771 0.01019,-0.18277 0,-0.55849 -0.180759,-1.10125 -0.67113,-1.55238 l 0.510711,-0.61155 0.790486,2.41156 z m 3.03414,-2.40013 -0.04385,-0.13424 -2.815483,-0.003 0.748942,2.27049 0.03234,-0.23686 h -0.08616 l 0.01075,-0.15075 h 0.376869 l -0.01075,0.13999 h -0.09689 l -0.02159,0.25837 c 0,0 1.89509,-2.13264 1.905837,-2.14339 m 1.246986,2.1811 c -0.378116,-0.30029 -0.672377,-0.5866 -0.884607,-1.15939 -0.335035,0.30395 -0.52606,0.74347 -0.52606,1.19566 0,0.89822 0.732531,1.63076 1.630667,1.63076 0.898227,0 1.630763,-0.73254 1.630763,-1.63076 0,-0.89813 -0.732536,-1.63067 -1.630763,-1.63067 -0.286586,0 -0.579695,0.0828 -0.81591,0.22231 0.159938,0.50533 0.315465,0.766 0.807563,1.16216 0.119448,0.005 0.21031,0.10094 0.21031,0.21532 0,0.11858 -0.09671,0.21538 -0.215301,0.21538 -0.118683,0 -0.206662,-0.0968 -0.206662,-0.22077 m -4.718152,0.48288 c -0.1845,0.68736 -0.840567,1.18415 -1.566767,1.18415 -0.898231,0 -1.630765,-0.73254 -1.630765,-1.63076 0,-0.89813 0.732534,-1.63067 1.630765,-1.63067 0.28668,0 0.618359,0.0676 0.860332,0.20924 l -0.885087,1.17523 c -0.108322,0.002 -0.202537,0.0984 -0.202537,0.21532 0,0.11858 0.09671,0.21538 0.215393,0.21538 0.03283,0 0.06726,-0.009 0.09643,-0.0221 z m 4.005766,-2.23242 -0.577681,-1.59372 0.183063,-0.31223 -0.366029,-0.39833 h -0.78607 l -0.01075,0.22604 h 0.689072 l 0.139982,0.15074 -0.161472,0.2907 0.203112,0.71986 h -2.820861 l -0.04308,-0.13162 c 0.226622,-0.0295 0.617689,-0.16916 0.711044,-0.25032 0.09345,-0.0811 0.01171,-0.15573 -0.0947,-0.15919 -0.556765,-0.0239 -1.383901,-0.0703 -1.541057,-0.0709 -0.157062,-7.4e-4 -0.17318,0.0783 -0.06802,0.19333 0.10525,0.11503 0.197164,0.21866 0.595623,0.28043 l 0.10765,0.29071 -0.667486,0.82685 c -0.314602,-0.19092 -0.695115,-0.29033 -1.064883,-0.29033 -1.109213,0 -2.013869,0.90465 -2.013869,2.01389 0,1.1093 0.904656,2.01396 2.013869,2.01396 0.912618,0 1.715,-0.62932 1.95083,-1.49915 l 0.613277,0.11025 c 0.02628,0.0721 0.08749,0.1277 0.160609,0.17107 l -0.109375,0.51887 h -0.139976 l -0.01073,0.13998 0.441441,0.0216 v -0.15072 h -0.107651 l 0.133267,-0.51859 c 0.198414,-0.0325 0.302416,-0.20235 0.243315,-0.37093 l 2.003699,-2.2661 0.0897,0.24312 c -0.486244,0.38301 -0.777339,0.97305 -0.777339,1.58664 0,1.1093 0.904658,2.01396 2.01387,2.01396 1.109206,2e-5 2.01396,-0.90465 2.01396,-2.01395 0,-1.10922 -0.904754,-2.01386 -2.013964,-2.01386 -0.322565,0 -0.6529,0.0787 -0.932385,0.22805"
         inkscape:connector-curvature="0" />
      <g
         inkscape:transform-center-x="0.5669643"
         style="fill:#ffffff"
         transform="matrix(0.11907476,-0.00929935,0.00929935,0.11907476,12.682977,255.82476)"
         id="g1262">
        <path
           inkscape:connector-curvature="0"
           d="m 16.626748,260.48721 c 3.288242,0 5.94651,-2.64308 5.94651,-5.89809 0,-3.24909 -2.658268,-5.87587 -5.94651,-5.87587 -3.288241,0 -5.963179,2.62668 -5.963179,5.87587 0,3.2549 2.674938,5.89809 5.963179,5.89809 z"
           id="path8"
           style="fill:#ffffff;stroke-width:0.26458332" />
        <path
           inkscape:connector-curvature="0"
           d="m 6.563824,261.46087 c 0.230653,-0.90667 -0.348853,-1.80834 -1.249865,-2.03625 0,0 -4.96120251,-1.17944 -4.96120251,-1.17944 -0.9291108,-0.21153 -1.84668579,0.32835 -2.05570659,1.23002 0,0 -4.1719501,17.06007 -4.1719501,17.06007 -0.2306532,0.90668 0.3322902,1.80835 1.2498653,2.03626 0,0 4.97787079,1.17944 4.97787079,1.17944 0.90098561,0.22791 1.83009651,-0.32835 2.04417081,-1.235 0,0 4.1669233,-17.05504 4.1669233,-17.05504 0,0 -1.06e-4,-6e-5 -1.06e-4,-6e-5 z"
           id="path10"
           style="fill:#ffffff;stroke-width:0.26458332" />
        <path
           inkscape:connector-curvature="0"
           d="m 29.471977,322.12798 c 0,0.0335 -0.01656,0.0669 -0.01656,0.0833 0,0.75139 0.619151,1.3575 1.373823,1.3575 0.686911,0 1.267168,-0.52277 1.351491,-1.17944 0,0 10.000985,-53.5728 10.000985,-53.5728 0,0 0,-0.10541 0,-0.10541 0,-0.72861 -0.602588,-1.34112 -1.357262,-1.34112 -0.686911,0 -1.216713,0.52276 -1.35726,1.18515 0,0 -9.995164,53.57283 -9.995164,53.57283 0,0 -5.3e-5,-1e-5 -5.3e-5,-1e-5 z"
           id="path12"
           style="fill:#ffffff;stroke-width:0.26458332" />
        <path
           inkscape:connector-curvature="0"
           d="m -3.7803262,318.61696 c -0.056221,0.27847 -0.073517,0.55626 -0.073517,0.83473 0,2.29267 1.869731,4.13438 4.18914792,4.13438 1.90362418,0 3.50228958,-1.25208 4.01478728,-2.95433 l 7.196402,-29.44019 6.859059,29.26821 c 0.43897,1.80834 2.094626,3.12737 4.042832,3.12737 2.326005,0 4.189148,-1.84182 4.189148,-4.13438 0,-0.31694 -0.03388,-0.61182 -0.0901,-0.90667 l -9.408582,-38.87788 0.788538,-3.42714 0.619151,2.69292 c 0.562954,1.75848 2.178975,1.93085 2.178975,1.93085 l 9.696979,2.43724 c 0.191733,0.0335 0.388514,0.0499 0.580231,0.0499 1.582156,0 2.866496,-1.25209 2.866496,-2.81544 0,-1.34112 -0.929111,-2.4707 -2.196253,-2.76568 l -8.395758,-2.08683 -2.302934,-9.25327 c -1.092728,-5.16361 -6.087003,-5.04111 -6.087003,-5.04111 -4.853781,-0.1225 -6.0706,4.92443 -6.0706,4.92443 l -12.5973405,52.30279 z"
           id="path14"
           style="fill:#ffffff;stroke-width:0.26458332" />
      </g>
    </g>
    <g
       id="g3233">
      <rect
         transform="scale(1,-1)"
         ry="1.7337872"
         y="-295.70694"
         x="1.2924751"
         height="10.583323"
         width="10.583333"
         id="rect28-62"
         style="fill:#dce9ea;fill-opacity:1;stroke:none;stroke-width:7.84764338;stroke-miterlimit:4;stroke-dasharray:none;stroke-opacity:1" />
      <path
         inkscape:connector-curvature="0"
         id="rect845-9"
         d="m 6.396611,287.01114 c -0.00271,0 -0.0049,0.003 -0.0049,0.005 v 3.14572 H 3.2459917 c -0.00271,0 -0.0049,0.003 -0.0049,0.005 v 0.21306 c 0,0.003 0.00232,0.005 0.0049,0.005 h 3.1457177 v 3.14572 c 0,0.003 0.00232,0.005 0.0049,0.005 h 0.2130707 c 0.00271,0 0.0049,-0.003 0.0049,-0.005 v -3.14572 h 3.1457178 c 0.00271,0 0.0049,-0.003 0.0049,-0.005 v -0.21306 c 0,-0.003 -0.00232,-0.005 -0.0049,-0.005 H 6.6145833 v -3.14572 c 0,-0.003 -0.00219,-0.005 -0.0049,-0.005 z"
         style="fill:none;fill-opacity:1;stroke:url(#linearGradient2462-7);stroke-width:1.35686743;stroke-miterlimit:4;stroke-dasharray:none;stroke-opacity:1" />
    </g>
    <rect
       style="fill:#f47216;fill-opacity:1;stroke:none;stroke-width:7.84764814;stroke-miterlimit:4;stroke-dasharray:none;stroke-opacity:1"
       id="rect28"
       width="10.583333"
       height="10.583339"
       x="1.3229166"
       y="271.86456"
       ry="1.7337894" />
    <g
       transform="matrix(0.0161898,0,0,-0.01618981,-44.588959,283.23739)"
       id="g6"
       style="fill:#ffffff;fill-opacity:1">
      <path
         inkscape:connector-curvature="0"
         d="M 2938.0555,633.9116 V 484.97095 h 44.8207 c 17.6217,0 26.4293,9.32884 26.4293,27.72849 v 50.95035 h 223.6567 c 65.32,0 97.9767,-34.70539 97.9767,-101.93432 V 406.296 h -321.6334 l 0.01,-33.63645 c 0,-18.30913 -8.8917,-27.72332 -26.4293,-27.72332 h -60.6639 v -91.04444 c 0,-91.04444 45.5233,-136.56988 137.5572,-136.56988 h 182.0953 c 106.8749,0 161.3114,55.41883 161.3114,165.26902 V 468.6374 c 0,109.84956 -54.4365,165.26903 -161.3114,165.26903 z m 187.3981,-288.97667 h 48.3449 c 32.5663,0 44.9564,-16.72026 44.9564,-47.91683 v -72.93772 c 0,-24.77063 -12.4225,-37.6154 -36.7049,-37.6154 h -24.942 c -21.0361,0 -31.6544,12.44836 -31.6544,37.16079 v 121.30852"
         id="path4"
         style="fill:#ffffff;fill-opacity:1;stroke-width:0.64666831" />
    </g>
    <rect
       style="fill:none;fill-opacity:1;stroke:#dce9ea;stroke-width:0.80000001;stroke-miterlimit:4;stroke-dasharray:2.39999999, 2.39999999;stroke-dashoffset:7.19199991;stroke-opacity:1;paint-order:normal"
       id="rect28-62-3"
       width="10.583333"
       height="10.583323"
       x="14.552084"
       y="-295.67706"
       ry="1.7337872"
       transform="scale(1,-1)"
       clip-path="url(#clipPath3235)" />
  </g>
</svg>
