<?xml version="1.0" encoding="UTF-8" standalone="no"?>
<svg
   xmlns:dc="http://purl.org/dc/elements/1.1/"
   xmlns:cc="http://creativecommons.org/ns#"
   xmlns:rdf="http://www.w3.org/1999/02/22-rdf-syntax-ns#"
   xmlns:svg="http://www.w3.org/2000/svg"
   xmlns="http://www.w3.org/2000/svg"
   xmlns:sodipodi="http://sodipodi.sourceforge.net/DTD/sodipodi-0.dtd"
   xmlns:inkscape="http://www.inkscape.org/namespaces/inkscape"
   id="svg1085"
   version="1.1"
   viewBox="0 0 21.874634 8.0046797"
   height="30.253906"
   width="82.675781"
   sodipodi:docname="tor-icon-selfmade.svg"
   inkscape:version="0.92.5 (2060ec1f9f, 2020-04-08)">
  <sodipodi:namedview
     pagecolor="#ffffff"
     bordercolor="#666666"
     borderopacity="1"
     objecttolerance="10"
     gridtolerance="10"
     guidetolerance="10"
     inkscape:pageopacity="0"
     inkscape:pageshadow="2"
     inkscape:window-width="1920"
     inkscape:window-height="1043"
     id="namedview10"
     showgrid="false"
     inkscape:zoom="5.4187574"
     inkscape:cx="3.1372511"
     inkscape:cy="14.388776"
     inkscape:window-x="0"
     inkscape:window-y="92"
     inkscape:window-maximized="1"
     inkscape:current-layer="flowRoot1640" />
  <defs
     id="defs1079" />
  <metadata
     id="metadata1082">
    <rdf:RDF>
      <cc:Work
         rdf:about="">
        <dc:format>image/svg+xml</dc:format>
        <dc:type
           rdf:resource="http://purl.org/dc/dcmitype/StillImage" />
        <dc:title />
      </cc:Work>
    </rdf:RDF>
  </metadata>
  <g
     id="g824">
    <g
       aria-label="TOR"
       transform="matrix(0.26458333,0,0,0.26458333,-1.372526,-8.138)"
       style="font-style:normal;font-weight:normal;font-size:40px;line-height:1.25;font-family:sans-serif;letter-spacing:0px;word-spacing:0px;fill:#666666;fill-opacity:1;stroke:none"
       id="flowRoot1640">
      <path
         inkscape:connector-curvature="0"
         d="m 5.1875,31.285156 h 24.667969 v 3.320313 H 19.503906 V 60.445312 H 15.539063 V 34.605469 H 5.1875 Z"
         id="path817"
         style="stroke:none;stroke-opacity:1;fill:#969696;fill-opacity:1" />
      <path
         inkscape:connector-curvature="0"
         d="m 45.5,33.960937 q -4.296875,0 -6.835938,3.203125 -2.519531,3.203125 -2.519531,8.730469 0,5.507813 2.519531,8.710938 2.539063,3.203125 6.835938,3.203125 4.296875,0 6.796875,-3.203125 2.519531,-3.203125 2.519531,-8.710938 0,-5.527344 -2.519531,-8.730469 -2.5,-3.203125 -6.796875,-3.203125 z m 0,-3.203125 q 6.132812,0 9.804687,4.121094 3.671875,4.101563 3.671875,11.015625 0,6.894531 -3.671875,11.015625 -3.671875,4.101563 -9.804687,4.101563 -6.152344,0 -9.84375,-4.101563 -3.671875,-4.101562 -3.671875,-11.015625 0,-6.914062 3.671875,-11.015625 3.691406,-4.121094 9.84375,-4.121094 z"
         id="path819"
         style="fill:#969696;fill-opacity:1" />
      <path
         inkscape:connector-curvature="0"
         d="m 78.976562,46.773437 q 1.269532,0.429688 2.460938,1.835938 1.210937,1.40625 2.421875,3.867187 l 4.003906,7.96875 H 83.625 l -3.730469,-7.480468 q -1.445312,-2.929688 -2.8125,-3.886719 -1.347656,-0.957031 -3.691406,-0.957031 H 69.09375 V 60.445312 H 65.148437 V 31.285156 h 8.90625 q 5,0 7.460938,2.089844 2.460937,2.089844 2.460937,6.308594 0,2.753906 -1.289062,4.570312 -1.269531,1.816406 -3.710938,2.519531 z M 69.09375,34.527344 v 10.351562 h 4.960937 q 2.851563,0 4.296875,-1.308594 1.464844,-1.328125 1.464844,-3.886718 0,-2.558594 -1.464844,-3.847657 -1.445312,-1.308593 -4.296875,-1.308593 z"
         id="path821"
         style="fill:#969696;fill-opacity:1" />
    </g>
  </g>
</svg>
