<?xml version="1.0" encoding="UTF-8" standalone="no"?>
<svg
   id="svg10"
   xml:space="preserve"
   viewBox="0 0 176.29866 426.0522"
   version="1.1"
   height="80"
   width="80"
   sodipodi:docname="heart.svg"
   inkscape:version="1.2.2 (b0a8486541, 2022-12-01)"
   xmlns:inkscape="http://www.inkscape.org/namespaces/inkscape"
   xmlns:sodipodi="http://sodipodi.sourceforge.net/DTD/sodipodi-0.dtd"
   xmlns:xlink="http://www.w3.org/1999/xlink"
   xmlns="http://www.w3.org/2000/svg"
   xmlns:svg="http://www.w3.org/2000/svg"
   xmlns:rdf="http://www.w3.org/1999/02/22-rdf-syntax-ns#"
   xmlns:cc="http://creativecommons.org/ns#"
   xmlns:dc="http://purl.org/dc/elements/1.1/"><sodipodi:namedview
     id="namedview16"
     pagecolor="#ffffff"
     bordercolor="#000000"
     borderopacity="0.25"
     inkscape:showpageshadow="2"
     inkscape:pageopacity="0.0"
     inkscape:pagecheckerboard="0"
     inkscape:deskcolor="#d1d1d1"
     showgrid="false"
     inkscape:zoom="13.724014"
     inkscape:cx="37.379736"
     inkscape:cy="28.67237"
     inkscape:window-width="2560"
     inkscape:window-height="1371"
     inkscape:window-x="0"
     inkscape:window-y="0"
     inkscape:window-maximized="1"
     inkscape:current-layer="svg10" /><defs
     id="defs14"><linearGradient
       xlink:href="#linearGradient6206"
       id="linearGradient6210"
       gradientUnits="userSpaceOnUse"
       x1="-293.63593"
       y1="3.2192702"
       x2="-258.68027"
       y2="13.229791"
       gradientTransform="matrix(0,-0.91412987,0.91412987,0,0.02226508,24.582359)" /><linearGradient
       id="linearGradient6206"><stop
         style="stop-color:#ffec00;stop-opacity:1"
         offset="0"
         id="stop6202" /><stop
         style="stop-color:#ff0000;stop-opacity:1"
         offset="1"
         id="stop6204" /></linearGradient></defs><metadata
     id="metadata2"><rdf:RDF><cc:Work
         rdf:about=""><dc:format>image/svg+xml</dc:format><dc:type
           rdf:resource="http://purl.org/dc/dcmitype/StillImage" /></cc:Work></rdf:RDF></metadata><g
     id="g8"
     transform="matrix(6.4131855,0,0,-6.4131855,-1935.3288,416.0147)"><g
       id="layer1"
       transform="matrix(2.0600602,0,0,-1.954417,280.47242,579.78551)"><g
         id="g61"
         transform="rotate(-45,12.388336,277.04149)"><g
           id="g112"><g
             id="g120"><g
               id="g125"><path
                 id="path26-6"
                 style="fill:url(#linearGradient6210);fill-opacity:1;stroke-width:0.385146"
                 d="m 12.115996,264.57061 a 9.1509008,10.131353 0 0 1 9.1509,10.13136 9.1509008,10.131353 0 0 1 -9.1509,10.13135 9.1509008,10.131353 0 0 1 -9.1509012,-10.13135 9.1509008,10.131353 0 0 1 9.1509012,-10.13136 z m 19.282252,19.28223 a 10.131353,9.1508998 0 0 1 -10.131354,9.15089 10.131353,9.1508998 0 0 1 -10.131352,-9.15089 10.131353,9.1508998 0 0 1 10.131352,-9.15091 10.131353,9.1508998 0 0 1 10.131354,9.15091 z M 2.9650961,274.70197 H 21.266896 v 18.30177 H 2.9650961 Z" /></g></g></g></g></g></g></svg>
