<?xml version="1.0" encoding="UTF-8" standalone="no"?>
<svg
   width="58.53315mm"
   height="127.06201mm"
   viewBox="0 0 58.53315 127.06201"
   version="1.1"
   id="svg868"
   sodipodi:docname="help-icon-dm.svg"
   inkscape:version="1.1.2 (0a00cf5339, 2022-02-04)"
   xmlns:inkscape="http://www.inkscape.org/namespaces/inkscape"
   xmlns:sodipodi="http://sodipodi.sourceforge.net/DTD/sodipodi-0.dtd"
   xmlns="http://www.w3.org/2000/svg"
   xmlns:svg="http://www.w3.org/2000/svg"
   xmlns:rdf="http://www.w3.org/1999/02/22-rdf-syntax-ns#"
   xmlns:cc="http://creativecommons.org/ns#"
   xmlns:dc="http://purl.org/dc/elements/1.1/">
  <sodipodi:namedview
     id="namedview9"
     pagecolor="#ffffff"
     bordercolor="#666666"
     borderopacity="1.0"
     inkscape:pageshadow="2"
     inkscape:pageopacity="0.0"
     inkscape:pagecheckerboard="0"
     inkscape:document-units="mm"
     showgrid="false"
     fit-margin-top="0"
     fit-margin-left="0"
     fit-margin-right="0"
     fit-margin-bottom="0"
     inkscape:zoom="0.69664703"
     inkscape:cx="236.84878"
     inkscape:cy="446.42407"
     inkscape:window-width="1920"
     inkscape:window-height="1043"
     inkscape:window-x="0"
     inkscape:window-y="0"
     inkscape:window-maximized="1"
     inkscape:current-layer="svg868" />
  <defs
     id="defs862" />
  <metadata
     id="metadata865">
    <rdf:RDF>
      <cc:Work
         rdf:about="">
        <dc:format>image/svg+xml</dc:format>
        <dc:type
           rdf:resource="http://purl.org/dc/dcmitype/StillImage" />
      </cc:Work>
    </rdf:RDF>
  </metadata>
  <g
     id="layer1"
     transform="translate(-32.72152,-30.207088)"
     style="fill:#7e7c7b;fill-opacity:1;stroke:#7e7c7b;stroke-opacity:1">
    <g
       id="g1172"
       transform="translate(28.79664,-48.836911)"
       style="fill:#7e7c7b;fill-opacity:1;stroke:#7e7c7b;stroke-opacity:1">
      <path
         style="fill:#7e7c7b;fill-opacity:1;stroke:#7e7c7b;stroke-width:0.264583px;stroke-linecap:butt;stroke-linejoin:miter;stroke-opacity:1"
         d="m 4.0878183,117.33831 c 0,0 -0.027166,2.81153 0,3.94328 0.025831,1.07612 0.020286,2.80636 0.011948,3.99925 -0.011948,1.31788 -0.2765313,1.0533 1.2705574,1.74538 4.4091516,1.46972 8.8183033,2.93943 13.2274553,4.40915 1.395523,0.42184 1.36504,0.27868 1.36504,1.768 v 55.71842 c -1e-6,1.17693 -0.433095,1.3213 -1.415906,1.6489 -4.426835,1.47561 -8.853668,2.95121 -13.2805016,4.42682 -1.2011163,0.2836 -1.1785931,0.49145 -1.1785931,1.70681 v 7.8662 c -0.074121,1.38538 -0.1204619,1.4032 1.2035867,1.4032 h 55.607383 c 1.397364,0 1.397364,0 1.397364,-1.31952 v -7.94988 c 0.129497,-1.53353 -0.143286,-1.36172 -1.340441,-1.76075 L 47.625,190.5 c -1.203848,-0.66586 -1.203848,-0.5549 -1.203848,-1.82926 v -71.35018 c 0,-1.30517 -0.0062,-1.30517 -1.322917,-1.30517 l -27.7689,-0.16295 c 0,0 -9.2727667,0.16295 -11.9186,0.16295 -1.3229167,0 -1.3229167,0 -1.3229167,1.32292 z"
         id="path1112" />
      <circle
         style="fill:#7e7c7b;fill-opacity:1;stroke:#7e7c7b;stroke-width:0.662001;stroke-opacity:1"
         id="path1136"
         cx="31.75"
         cy="95.25"
         r="15.875" />
    </g>
  </g>
</svg>
